<svg width="43" height="39" viewBox="0 0 43 39" fill="none" xmlns="http://www.w3.org/2000/svg">
<path d="M21.0955 35.913C26.3591 35.913 30.626 31.6461 30.626 26.3825C30.626 21.119 26.3591 16.852 21.0955 16.852C15.832 16.852 11.565 21.119 11.565 26.3825C11.565 31.6461 15.832 35.913 21.0955 35.913Z" fill="#63BCE7"/>
<path d="M14.1432 26.3825C14.1432 21.5565 17.7312 17.5708 22.3847 16.9413C21.9628 16.8842 21.533 16.8522 21.0957 16.8522C15.8321 16.8522 11.5652 21.1191 11.5652 26.3827C11.5652 31.6463 15.8321 35.9132 21.0957 35.9132C21.5332 35.9132 21.963 35.8811 22.3847 35.8241C17.7311 35.1943 14.1432 31.2086 14.1432 26.3825Z" fill="#6377E7"/>
<path d="M14.8897 36.7218C13.6417 36.7218 12.6106 36.3488 11.87 35.6081C11.5267 35.2649 11.5267 34.7084 11.87 34.3653C12.2129 34.022 12.7698 34.022 13.1128 34.3653C13.8922 35.1449 15.4842 35.1649 17.4804 34.4196C19.7318 33.5792 22.1892 31.8986 24.4004 29.6874C26.6115 27.4763 28.2922 25.0187 29.1326 22.7674C29.8777 20.7716 29.8579 19.1796 29.0783 18.3998C28.735 18.0567 28.735 17.5001 29.0783 17.157C29.4212 16.8137 29.9781 16.8137 30.321 17.157C31.6276 18.4634 31.7902 20.6742 30.7791 23.3821C29.8526 25.8643 28.0285 28.545 25.643 30.9302C23.2578 33.3155 20.5771 35.1396 18.0949 36.0663C16.9225 36.5042 15.8426 36.7218 14.8897 36.7218Z" fill="#F8AF23"/>
<path d="M21.3703 18.5019C22.056 18.5019 22.6118 17.9461 22.6118 17.2604C22.6118 16.5747 22.056 16.0188 21.3703 16.0188C20.6846 16.0188 20.1287 16.5747 20.1287 17.2604C20.1287 17.9461 20.6846 18.5019 21.3703 18.5019Z" fill="#CECECE"/>
<path d="M17.443 28.877C18.6132 28.877 19.5618 27.9284 19.5618 26.7582C19.5618 25.588 18.6132 24.6393 17.443 24.6393C16.2727 24.6393 15.3241 25.588 15.3241 26.7582C15.3241 27.9284 16.2727 28.877 17.443 28.877Z" fill="#F46275"/>
<path d="M8.24065 13.2056C11.8033 13.2056 14.6915 10.3175 14.6915 6.75481C14.6915 3.19212 11.8033 0.303986 8.24065 0.303986C4.67796 0.303986 1.78983 3.19212 1.78983 6.75481C1.78983 10.3175 4.67796 13.2056 8.24065 13.2056Z" fill="#CECECE"/>
<path d="M4.36783 6.75481C4.36783 3.63363 6.58461 1.03031 9.52965 0.433009C9.11305 0.348634 8.68203 0.303986 8.24065 0.303986C4.67791 0.303986 1.78983 3.19207 1.78983 6.75481C1.78983 10.3175 4.67791 13.2056 8.24065 13.2056C8.68221 13.2056 9.11322 13.161 9.52965 13.0766C6.58479 12.4793 4.36783 9.87598 4.36783 6.75481Z" fill="#AFAFAF"/>
<path d="M8.42663 4.24131C8.89068 4.24131 9.26686 3.86512 9.26686 3.40107C9.26686 2.93702 8.89068 2.56084 8.42663 2.56084C7.96258 2.56084 7.5864 2.93702 7.5864 3.40107C7.5864 3.86512 7.96258 4.24131 8.42663 4.24131Z" fill="#F8AF23"/>
<path d="M5.76828 8.44318C6.56036 8.44318 7.20247 7.80107 7.20247 7.00898C7.20247 6.2169 6.56036 5.57478 5.76828 5.57478C4.97619 5.57478 4.33408 6.2169 4.33408 7.00898C4.33408 7.80107 4.97619 8.44318 5.76828 8.44318Z" fill="#F46275"/>
<path d="M35.1976 13.2056C38.7603 13.2056 41.6484 10.3175 41.6484 6.75481C41.6484 3.19212 38.7603 0.303986 35.1976 0.303986C31.6349 0.303986 28.7468 3.19212 28.7468 6.75481C28.7468 10.3175 31.6349 13.2056 35.1976 13.2056Z" fill="#F46275"/>
<path d="M39.7591 2.19328C38.1699 0.604038 35.9578 0.0185109 33.9086 0.434409C35.1076 0.677866 36.251 1.26339 37.1809 2.19328C39.7002 4.71257 39.7002 8.79703 37.1809 11.3161C36.251 12.246 35.1076 12.8316 33.9086 13.075C35.9578 13.4909 38.1699 12.9054 39.7591 11.3161C42.2784 8.79703 42.2784 4.7124 39.7591 2.19328Z" fill="#F48875"/>
<path d="M33.1928 6.75463C34.3 6.75463 35.1976 5.85705 35.1976 4.74984C35.1976 3.64263 34.3 2.74506 33.1928 2.74506C32.0856 2.74506 31.188 3.64263 31.188 4.74984C31.188 5.85705 32.0856 6.75463 33.1928 6.75463Z" fill="#F8AF23"/>
<path d="M21.9525 9.16793L22.5274 10.2193C22.5747 10.3058 22.6459 10.377 22.7324 10.4242L23.7838 10.9992C24.1415 11.1949 24.1415 11.7085 23.7838 11.9041L22.7324 12.4791C22.6459 12.5264 22.5747 12.5976 22.5274 12.6841L21.9525 13.7354C21.7568 14.0931 21.2432 14.0931 21.0475 13.7354L20.4726 12.6841C20.4253 12.5976 20.3541 12.5264 20.2676 12.4791L19.2163 11.9041C18.8585 11.7085 18.8585 11.1949 19.2163 10.9992L20.2676 10.4242C20.3541 10.377 20.4253 10.3058 20.4726 10.2193L21.0475 9.16793C21.2432 8.81021 21.7568 8.81021 21.9525 9.16793Z" fill="#F8AF23"/>
<path d="M6.41865 27.0788L6.99363 28.1302C7.04092 28.2166 7.11211 28.2878 7.19859 28.3351L8.24994 28.9101C8.60766 29.1057 8.60766 29.6194 8.24994 29.815L7.19859 30.39C7.11211 30.4373 7.04092 30.5085 6.99363 30.595L6.41865 31.6463C6.22301 32.004 5.70937 32.004 5.51373 31.6463L4.93875 30.595C4.89146 30.5085 4.82027 30.4373 4.73379 30.39L3.68244 29.815C3.32473 29.6194 3.32473 29.1057 3.68244 28.9101L4.73379 28.3351C4.82027 28.2878 4.89146 28.2166 4.93875 28.1302L5.51373 27.0788C5.70937 26.7213 6.22301 26.7213 6.41865 27.0788Z" fill="#F8AF23"/>
<path d="M37.4862 27.0788L38.0612 28.1302C38.1085 28.2166 38.1797 28.2878 38.2662 28.3351L39.3175 28.9101C39.6752 29.1057 39.6752 29.6194 39.3175 29.815L38.2662 30.39C38.1797 30.4373 38.1085 30.5085 38.0612 30.595L37.4862 31.6463C37.2906 32.004 36.7769 32.004 36.5813 31.6463L36.0063 30.595C35.959 30.5085 35.8878 30.4373 35.8014 30.39L34.75 29.815C34.3923 29.6194 34.3923 29.1057 34.75 28.9101L35.8014 28.3351C35.8878 28.2878 35.959 28.2166 36.0063 28.1302L36.5813 27.0788C36.7769 26.7213 37.2906 26.7213 37.4862 27.0788Z" fill="#F8AF23"/>
<path d="M19.8255 26.7582C19.8255 25.4444 18.7568 24.3756 17.443 24.3756C16.1292 24.3756 15.0604 25.4444 15.0604 26.7582C15.0604 28.072 16.1292 29.1407 17.443 29.1407C18.7568 29.1407 19.8255 28.072 19.8255 26.7582ZM15.5878 26.7582C15.5878 25.7353 16.4199 24.903 17.443 24.903C18.466 24.903 19.2982 25.7351 19.2982 26.7582C19.2982 27.7812 18.466 28.6134 17.443 28.6134C16.4199 28.6134 15.5878 27.7811 15.5878 26.7582Z" fill="#3F3679"/>
<path d="M8.24065 13.4693C11.9431 13.4693 14.9551 10.4571 14.9551 6.7548C14.9551 3.05232 11.943 0.0401306 8.24065 0.0401306C4.53834 0.0401306 1.52615 3.05232 1.52615 6.7548C1.52615 10.4573 4.53834 13.4693 8.24065 13.4693ZM8.24065 0.567474C10.6761 0.567474 12.7867 1.98251 13.7955 4.03318H11.9858C11.8403 4.03318 11.7222 4.1513 11.7222 4.29685C11.7222 4.4424 11.8403 4.56052 11.9858 4.56052H14.0246C14.2546 5.16486 14.3926 5.81402 14.4213 6.49113H8.8877C8.74215 6.49113 8.62402 6.60925 8.62402 6.7548C8.62402 6.90035 8.74215 7.01847 8.8877 7.01847H14.4211C14.3926 7.69576 14.2545 8.34474 14.0244 8.94908H11.9858C11.8403 8.94908 11.7222 9.0672 11.7222 9.21275C11.7222 9.35829 11.8403 9.47642 11.9858 9.47642H13.7955C12.7867 11.5271 10.6763 12.9419 8.24082 12.9419C4.82926 12.9419 2.05367 10.1664 2.05367 6.7548C2.0535 3.34306 4.82908 0.567474 8.24065 0.567474Z" fill="#3F3679"/>
<path d="M8.42663 4.50497C9.03536 4.50497 9.53054 4.00979 9.53054 3.40106C9.53054 2.79216 9.03536 2.29698 8.42663 2.29698C7.8179 2.29698 7.32272 2.79216 7.32272 3.40106C7.32272 4.00979 7.8179 4.50497 8.42663 4.50497ZM8.42663 2.82433C8.74462 2.82433 9.00319 3.08308 9.00319 3.40106C9.00319 3.71905 8.74444 3.97763 8.42663 3.97763C8.10882 3.97763 7.85007 3.71888 7.85007 3.40106C7.85007 3.0829 8.10864 2.82433 8.42663 2.82433Z" fill="#3F3679"/>
<path d="M5.76828 8.70685C6.70449 8.70685 7.46615 7.94519 7.46615 7.00915C7.46615 6.07294 6.70449 5.31128 5.76828 5.31128C4.83225 5.31128 4.07059 6.07294 4.07059 7.00915C4.07059 7.94519 4.83225 8.70685 5.76828 8.70685ZM5.76828 5.83845C6.41375 5.83845 6.93881 6.36351 6.93881 7.00897C6.93881 7.65427 6.41375 8.17933 5.76828 8.17933C5.12299 8.17933 4.59793 7.65427 4.59793 7.00897C4.59793 6.36368 5.12299 5.83845 5.76828 5.83845Z" fill="#3F3679"/>
<path d="M35.1978 13.4661C36.9171 13.4661 38.6366 12.8115 39.9456 11.5027C41.2139 10.2344 41.9122 8.54813 41.9122 6.75481C41.9122 4.96131 41.2137 3.27504 39.9456 2.00678C37.3277 -0.611132 33.068 -0.610956 30.4497 2.00678C27.8318 4.62486 27.8318 8.88457 30.4497 11.5027C31.7588 12.8115 33.4783 13.4661 35.1978 13.4661ZM30.8226 2.37961C32.0289 1.1734 33.6131 0.570469 35.1978 0.570469C36.7821 0.570469 38.3666 1.17375 39.5728 2.37961C40.7414 3.5482 41.3851 5.10193 41.3851 6.75481C41.3851 7.44791 41.2705 8.12326 41.0527 8.76064L39.7705 7.47867C39.6675 7.37566 39.5007 7.37566 39.3977 7.47867C39.2947 7.58168 39.2947 7.7485 39.3977 7.8515L40.8412 9.29502C40.5724 9.89145 40.208 10.4459 39.7547 10.9389L35.8418 7.02604C35.7388 6.92303 35.572 6.92303 35.469 7.02604C35.366 7.12904 35.366 7.29586 35.469 7.39887L39.3817 11.3116C38.8827 11.7702 38.326 12.1316 37.7359 12.3963L36.2945 10.9547C36.1914 10.8517 36.0246 10.8517 35.9216 10.9547C35.8186 11.0578 35.8186 11.2246 35.9216 11.3276L37.2011 12.6071C35.0378 13.3434 32.5449 12.8516 30.8227 11.1298C28.4105 8.7174 28.4105 4.79203 30.8226 2.37961Z" fill="#3F3679"/>
<path d="M33.193 7.01847C34.4438 7.01847 35.4614 6.00088 35.4614 4.75002C35.4614 3.49916 34.4438 2.48138 33.193 2.48138C31.9421 2.48138 30.9245 3.49916 30.9245 4.75002C30.9245 6.00088 31.9419 7.01847 33.193 7.01847ZM33.193 3.00873C34.1531 3.00873 34.9341 3.7899 34.9341 4.75002C34.9341 5.71013 34.1531 6.49113 33.193 6.49113C32.2328 6.49113 31.4518 5.71013 31.4518 4.75002C31.4518 3.7899 32.2328 3.00873 33.193 3.00873Z" fill="#3F3679"/>
<path d="M19.0898 12.1355L20.1412 12.7105C20.1834 12.7335 20.218 12.7681 20.241 12.8105L20.816 13.8616C20.9549 14.1155 21.2105 14.267 21.4998 14.267C21.7891 14.267 22.0447 14.1156 22.1838 13.8616L22.7586 12.8106C22.782 12.7681 22.8164 12.7335 22.8588 12.7105L23.9099 12.1355C24.1638 11.9966 24.3155 11.741 24.3155 11.4517C24.3155 11.1623 24.1639 10.9066 23.9099 10.7677L22.8589 10.1929C22.8166 10.1697 22.782 10.1349 22.7588 10.0925L22.1838 9.04137H22.1836C22.0447 8.78754 21.7891 8.63602 21.4998 8.63602C21.2105 8.63602 20.9549 8.78736 20.8158 9.04137L20.241 10.0924C20.2177 10.1349 20.183 10.1697 20.1408 10.1927L19.0897 10.7677C18.8358 10.9066 18.6841 11.1622 18.6841 11.4517C18.6843 11.7408 18.836 11.9964 19.0898 12.1355ZM19.343 11.2305L20.3943 10.6556C20.5251 10.584 20.6322 10.4768 20.704 10.3457L21.2788 9.29449C21.3437 9.17619 21.4552 9.16354 21.5002 9.16354C21.5452 9.16354 21.6566 9.17619 21.7215 9.29449L22.2964 10.3458C22.3682 10.4768 22.4752 10.5838 22.6062 10.6557L23.6573 11.2307C23.7758 11.2954 23.7885 11.4069 23.7885 11.4519C23.7885 11.4967 23.7758 11.6081 23.6573 11.6728L22.6064 12.2478C22.4756 12.3192 22.3683 12.4264 22.2963 12.5577L21.7215 13.6089C21.6566 13.7272 21.5452 13.7398 21.5002 13.7398C21.4552 13.7398 21.3437 13.7272 21.279 13.6089L20.704 12.5575C20.6323 12.4264 20.5249 12.3193 20.3943 12.2478L19.3431 11.6728C19.2247 11.6081 19.212 11.4967 19.212 11.4519C19.2117 11.4067 19.2245 11.2952 19.343 11.2305Z" fill="#3F3679"/>
<path d="M7.32482 28.1036C7.28263 28.0804 7.248 28.0459 7.22498 28.0036L6.65 26.9524C6.51113 26.6988 6.25572 26.5471 5.96638 26.5471C5.96621 26.5471 5.96621 26.5471 5.96621 26.5471C5.67687 26.5471 5.42129 26.6984 5.28224 26.9524L4.70744 28.0034C4.68406 28.0459 4.64961 28.0806 4.60724 28.1036L3.55607 28.6786C3.30224 28.8174 3.15054 29.073 3.15054 29.3624C3.15054 29.6517 3.30207 29.9075 3.55607 30.0463L4.60707 30.6211C4.64943 30.6443 4.68406 30.6791 4.70726 30.7215L5.28224 31.7727C5.42111 32.0265 5.6767 32.178 5.96603 32.178H5.96621C6.25554 32.178 6.51095 32.0265 6.64982 31.7727L7.2248 30.7213C7.248 30.679 7.28246 30.6443 7.32482 30.6213L8.37599 30.0463C8.62982 29.9075 8.78152 29.6519 8.78152 29.3624C8.78152 29.073 8.63 28.8174 8.37599 28.6786L7.32482 28.1036ZM8.12322 29.5835L7.07187 30.1585C6.94074 30.2302 6.83369 30.3376 6.76215 30.4684L6.18716 31.5196C6.12265 31.6379 6.01121 31.6505 5.96621 31.6505C5.92121 31.6505 5.80976 31.6379 5.74507 31.5196L5.17009 30.4682C5.09838 30.3373 4.99132 30.2302 4.86037 30.1583L3.8092 29.5833C3.69072 29.5186 3.67806 29.4072 3.67806 29.3622C3.67806 29.3174 3.69072 29.2059 3.8092 29.1412L4.86019 28.5663C4.99097 28.4949 5.0982 28.3877 5.17027 28.2564L5.74507 27.2052C5.80994 27.0869 5.92138 27.0742 5.96638 27.0742C6.01138 27.0742 6.12283 27.0869 6.18734 27.2052L6.76232 28.2562C6.83386 28.3873 6.94127 28.4945 7.07222 28.5663L8.12339 29.1412C8.24187 29.2059 8.25453 29.3174 8.25453 29.3622C8.25435 29.4074 8.2417 29.5188 8.12322 29.5835Z" fill="#3F3679"/>
<path d="M38.3926 28.1036C38.3504 28.0806 38.3158 28.0459 38.2927 28.0036L37.7177 26.9524H37.7176C37.5787 26.6986 37.3231 26.5471 37.0338 26.5471H37.0336C36.7443 26.5471 36.4889 26.6986 36.35 26.9524L35.775 28.0038C35.7518 28.0459 35.7174 28.0806 35.675 28.1036L34.6238 28.6786C34.37 28.8174 34.2183 29.073 34.2183 29.3624C34.2183 29.6517 34.3698 29.9075 34.6238 30.0463L35.6748 30.6211C35.7174 30.6445 35.7518 30.679 35.775 30.7215L36.35 31.7727C36.4889 32.0263 36.7443 32.178 37.0336 32.178C37.0338 32.178 37.0338 32.178 37.0338 32.178C37.3231 32.178 37.5787 32.0267 37.7177 31.7727L38.2926 30.7217C38.3159 30.6791 38.3506 30.6443 38.3927 30.6213L39.4439 30.0463C39.6977 29.9075 39.8494 29.6519 39.8494 29.3624C39.8494 29.073 39.6979 28.8174 39.4439 28.6786L38.3926 28.1036ZM39.191 29.5835L38.1396 30.1585C38.0088 30.23 37.9018 30.3373 37.8299 30.4684L37.2551 31.5196C37.1902 31.6379 37.0788 31.6505 37.0338 31.6505C36.9888 31.6505 36.8773 31.6379 36.8128 31.5196L36.2378 30.4686C36.1665 30.3376 36.0592 30.2304 35.9279 30.1583L34.8768 29.5833C34.7583 29.5186 34.7456 29.4072 34.7456 29.3622C34.7456 29.3174 34.7583 29.2059 34.8768 29.1412L35.9278 28.5663C36.0589 28.4947 36.1661 28.3873 36.2378 28.2564L36.8128 27.2052C36.8773 27.0869 36.9888 27.0742 37.0338 27.0742C37.0788 27.0742 37.1902 27.0869 37.2551 27.2052L37.8301 28.2565C37.9018 28.3877 38.0092 28.4947 38.1398 28.5663L39.191 29.1412C39.3094 29.2059 39.3221 29.3174 39.3221 29.3622C39.3221 29.4074 39.3093 29.5188 39.191 29.5835Z" fill="#3F3679"/>
<path d="M3.80287 38.4325H0.638275C0.492728 38.4325 0.374603 38.5506 0.374603 38.6962C0.374603 38.8417 0.492728 38.9599 0.638275 38.9599H3.80287C3.94841 38.9599 4.06654 38.8417 4.06654 38.6962C4.06654 38.5506 3.94841 38.4325 3.80287 38.4325Z" fill="#3F3679"/>
<path d="M42.3617 38.4325H39.1971C39.0516 38.4325 38.9334 38.5506 38.9334 38.6962C38.9334 38.8417 39.0516 38.9599 39.1971 38.9599H42.3617C42.5072 38.9599 42.6254 38.8417 42.6254 38.6962C42.6254 38.5506 42.5072 38.4325 42.3617 38.4325Z" fill="#3F3679"/>
<path d="M37.4045 38.4325H5.59549C5.44994 38.4325 5.33182 38.5506 5.33182 38.6962C5.33182 38.8417 5.44994 38.9599 5.59549 38.9599H37.4047C37.5502 38.9599 37.6684 38.8417 37.6684 38.6962C37.6684 38.5506 37.5502 38.4325 37.4045 38.4325Z" fill="#3F3679"/>
<path d="M0.638275 37.0308H42.3617C42.5073 37.0308 42.6254 36.9127 42.6254 36.7672C42.6254 36.6216 42.5073 36.5035 42.3617 36.5035H17.637C17.8186 36.4448 18.0014 36.3826 18.1872 36.3133C18.4702 36.2076 18.7562 36.0888 19.0435 35.9609C19.0447 35.961 19.0457 35.9617 19.047 35.9619C19.7165 36.1045 20.4056 36.1767 21.0953 36.1767C26.4959 36.1767 30.8895 31.7831 30.8895 26.3825C30.8895 25.707 30.8203 25.0322 30.684 24.3772C30.681 24.3628 30.6761 24.3496 30.671 24.3364C30.8001 24.0471 30.9198 23.7593 31.0261 23.4744C32.0755 20.6642 31.8913 18.3543 30.5076 16.9707C30.2917 16.7548 30.005 16.636 29.6995 16.636C29.394 16.636 29.1073 16.755 28.8916 16.9707C28.6757 17.1865 28.5569 17.4732 28.5569 17.7786C28.5569 18.0839 28.6759 18.3706 28.8916 18.5865C29.3732 19.0683 29.5183 19.954 29.3284 21.0757C27.8425 18.7686 25.4874 17.2045 22.7786 16.7355C22.5649 16.1642 22.015 15.7557 21.3699 15.7557C20.7568 15.7557 20.2291 16.1246 19.9948 16.6516C15.0316 17.2059 11.3012 21.3707 11.3012 26.3829C11.3012 29.7101 13.0098 32.8193 15.7904 34.6156C14.6676 34.806 13.7809 34.6613 13.2991 34.1793C13.0832 33.9635 12.7965 33.8446 12.491 33.8446C12.1855 33.8446 11.8988 33.9636 11.6831 34.1793C11.4673 34.3952 11.3485 34.6819 11.3485 34.9872C11.3485 35.2925 11.4675 35.5792 11.6831 35.7951C11.9721 36.0843 12.3005 36.3198 12.6652 36.504H0.638275C0.492728 36.504 0.374603 36.6221 0.374603 36.7677C0.374603 36.9132 0.492728 37.0308 0.638275 37.0308ZM30.3624 26.3825C30.3624 31.4921 26.2053 35.6494 21.0955 35.6494C20.684 35.6494 20.2736 35.6191 19.8672 35.5653C21.8807 34.5344 23.9472 32.9993 25.8295 31.1167C27.7121 29.2342 29.2474 27.1676 30.2783 25.1538C30.3323 25.5601 30.3624 25.9709 30.3624 26.3825ZM21.3703 16.2827C21.9094 16.2827 22.3481 16.7212 22.3481 17.2605C22.3481 17.7998 21.9096 18.2384 21.3703 18.2384C20.831 18.2384 20.3924 17.7998 20.3924 17.2605C20.3924 16.7212 20.831 16.2827 21.3703 16.2827ZM16.4781 34.4189C13.6104 32.7674 11.8289 29.6881 11.8289 26.3825C11.8289 21.7031 15.2657 17.8048 19.8684 17.1985C19.8675 17.2192 19.8652 17.2394 19.8652 17.2605C19.8652 18.0906 20.5404 18.7658 21.3704 18.7658C22.1906 18.7658 22.8583 18.1062 22.8741 17.2899C25.527 17.8041 27.8046 19.4337 29.154 21.8038C29.1565 21.8082 29.1604 21.8113 29.163 21.8156C29.0874 22.0928 28.9964 22.3793 28.8856 22.6755C28.058 24.8921 26.399 27.3161 24.2141 29.5012C22.0291 31.6864 19.6049 33.3452 17.3883 34.1728C17.09 34.2841 16.8017 34.3757 16.5227 34.4516C16.5092 34.4393 16.4944 34.4282 16.4781 34.4189ZM11.8761 34.9868C11.8761 34.8225 11.9401 34.6682 12.0565 34.5518C12.1725 34.4356 12.327 34.3716 12.4914 34.3716C12.6557 34.3716 12.8101 34.4356 12.9264 34.5518C13.7821 35.4078 15.4758 35.4497 17.5727 34.6666C19.8585 33.8133 22.3497 32.1111 24.5869 29.8737C26.8241 27.6364 28.5263 25.1456 29.3797 22.8595C30.1625 20.7628 30.1208 19.0692 29.265 18.2133C29.1488 18.0971 29.0848 17.9426 29.0848 17.7782C29.0848 17.6139 29.1488 17.4595 29.2651 17.3432C29.4972 17.1108 29.9025 17.1108 30.1349 17.3432C31.3641 18.5722 31.5053 20.6841 30.5325 23.2897C29.6188 25.7372 27.8163 28.3843 25.457 30.7435C23.0978 33.1028 20.4508 34.9053 18.0032 35.819C16.8678 36.243 15.8205 36.458 14.8899 36.458C13.6976 36.458 12.7443 36.1094 12.0567 35.4216C11.9401 35.3055 11.8761 35.151 11.8761 34.9868Z" fill="#3F3679"/>
</svg>
