<svg width="94" height="83" viewBox="0 0 94 83" fill="none" xmlns="http://www.w3.org/2000/svg">
<path d="M10.5948 41.3252C10.5948 61.387 26.8582 77.6503 46.92 77.6503C56.9509 77.6503 66.0322 73.5845 72.6058 67.0109M83.2452 41.3252C83.2452 21.2633 66.9818 5 46.92 5C36.8891 5 27.8078 9.06583 21.2342 15.6394" stroke="#663399" stroke-width="9.08129"/>
<path d="M46.92 54.9471C55.2791 54.9471 62.0555 48.1707 62.0555 39.8116C62.0555 31.4525 55.2791 24.6761 46.92 24.6761C38.5609 24.6761 31.7845 31.4525 31.7845 39.8116C31.7845 48.1707 38.5609 54.9471 46.92 54.9471Z" fill="#FFAF40"/>
<path d="M46.92 20.1355V15.5948M60.8331 25.8985L64.0438 22.6878M66.5961 39.8116H71.1368M60.8331 53.7247L64.0438 56.9355M46.92 59.4877V64.0284M33.0069 53.7247L29.7961 56.9355M27.2439 39.8116H22.7032M33.0069 25.8985L29.7961 22.6878" stroke="#FFAF40" stroke-width="3.0271" stroke-linecap="round" stroke-linejoin="round"/>
<path fill-rule="evenodd" clip-rule="evenodd" d="M10.5948 20.1355L21.1897 41.3252H0L10.5948 20.1355Z" fill="#663399"/>
<path fill-rule="evenodd" clip-rule="evenodd" d="M83.2452 62.5148L72.6503 41.3252H93.84L83.2452 62.5148Z" fill="#663399"/>
</svg>
